# xmcd
#
# Track frame offsets:
# 150
# 29565
# 47085
# 61267
# 82780
# 100457
# 124320
# 139165
# 176590
# 193270
# 208812
# 226887
# 243402
# 258725
# 287425
# 305290
#
# Disc length: 4308 seconds
#
#
# Revision: 1
# Processed by: cddbd v1.5.2PL0 Copyright (c) Steve Scherf et al.
# Submitted via: FreeRIP 2.951 
#
DISCID=e910d210
DTITLE=Evelyn King -  - The best of
DYEAR=1990
DGENRE=Funk
TTITLE0=Evelyn King - Shame
TTITLE1=Evelyn King - I'm in love
TTITLE2=Evelyn King - If you want my lovin'
TTITLE3=Evelyn King - Just for the night
TTITLE4=Evelyn King - Betcha she don't love you
TTITLE5=Evelyn King - I'm romantic
TTITLE6=Evelyn King - Back to love
TTITLE7=Evelyn King - I don't know if it's right
TTITLE8=Evelyn King - Love come down
TTITLE9=Evelyn King - Action
TTITLE10=Evelyn King - High horse
TTITLE11=Evelyn King - Get loose
TTITLE12=Evelyn King - Music box
TTITLE13=Evelyn King - Shake down
TTITLE14=Evelyn King - I can't stand it
TTITLE15=Evelyn King - Your personal touch
EXTD=
EXTT0=
EXTT1=
EXTT2=
EXTT3=
EXTT4=
EXTT5=
EXTT6=
EXTT7=
EXTT8=
EXTT9=
EXTT10=
EXTT11=
EXTT12=
EXTT13=
EXTT14=
EXTT15=
PLAYORDER=
